name analog
datacolumns 19
datarows 52
range 0.192 0.2175
endheader
time	ground_force_vx	ground_force_vy	ground_force_vz	ground_force_px	ground_force_py	ground_force_pz	l_ground_force_vx	l_ground_force_vy	l_ground_force_vz	l_ground_force_px	l_ground_force_py	l_ground_force_pz	ground_torque_x	ground_torque_y	ground_torque_z	l_ground_torque_x	l_ground_torque_y	l_ground_torque_z
0.192	-0.0	-0.0	-0.0	-0.0	-0.0	-0.0	0.4155654311180115	3.819251537322998	-750.0546875	-0.0	-0.0	-0.0	-0.0	-0.0	-0.0	213252.296875	11401.7626953125	167.27122497558594
0.1925	-0.0	-0.0	-0.0	-0.0	-0.0	-0.0	-0.2530097961425781	3.572062492370605	-752.1635131835938	-0.0	-0.0	-0.0	-0.0	-0.0	-0.0	213384.53125	11081.0810546875	263.3156433105469
0.193	-0.0	-0.0	-0.0	-0.0	-0.0	-0.0	-0.359022706747055	3.662067413330078	-753.2818603515625	-0.0	-0.0	-0.0	-0.0	-0.0	-0.0	213777.765625	11558.1982421875	296.5138854980469
0.1935	-0.0	-0.0	-0.0	-0.0	-0.0	-0.0	-0.1198467910289764	3.4887382984161377	-755.266845703125	-0.0	-0.0	-0.0	-0.0	-0.0	-0.0	214018.53125	11819.6142578125	308.4551086425781
0.194	-0.0	-0.0	-0.0	-0.0	-0.0	-0.0	0.328197032213211	3.239177703857422	-755.983154296875	-0.0	-0.0	-0.0	-0.0	-0.0	-0.0	214493.421875	12092.6015625	436.36572265625
0.1945	-0.0	-0.0	-0.0	-0.0	-0.0	-0.0	0.3548431396484375	2.6230504512786865	-756.960693359375	-0.0	-0.0	-0.0	-0.0	-0.0	-0.0	214391.09375	12302.953125	407.2811584472656
0.195	-0.0	-0.0	-0.0	-0.0	-0.0	-0.0	0.505398690700531	1.9952256679534912	-756.4529418945312	-0.0	-0.0	-0.0	-0.0	-0.0	-0.0	213953.59375	12871.2041015625	338.38446044921875
0.1955	-0.0	-0.0	-0.0	-0.0	-0.0	-0.0	1.364546775817871	2.079313039779663	-756.2776489257812	-0.0	-0.0	-0.0	-0.0	-0.0	-0.0	213889.46875	13298.126953125	470.3601684570313
0.196	-0.0	-0.0	-0.0	-0.0	-0.0	-0.0	0.1263523548841476	1.3166168928146362	-754.2073364257812	-0.0	-0.0	-0.0	-0.0	-0.0	-0.0	213633.734375	13907.2724609375	61.22616195678711
0.1965	-0.0	-0.0	-0.0	-0.0	-0.0	-0.0	-1.9787770509719849	2.4189658164978027	-752.3396606445312	-0.0	-0.0	-0.0	-0.0	-0.0	-0.0	213560.578125	14517.2861328125	-548.3585205078125
0.197	-0.0	-0.0	-0.0	-0.0	-0.0	-0.0	-2.4088683128356934	2.445772647857666	-752.24755859375	-0.0	-0.0	-0.0	-0.0	-0.0	-0.0	213352.171875	15288.935546875	-659.9574584960938
0.1975	-0.0	-0.0	-0.0	-0.0	-0.0	-0.0	-2.804529190063477	2.894166946411133	-750.63623046875	-0.0	-0.0	-0.0	-0.0	-0.0	-0.0	213134.4375	15677.099609375	-858.1260986328125
0.198	-0.0	-0.0	-0.0	-0.0	-0.0	-0.0	-3.4306929111480717	2.899043083190918	-749.6507568359375	-0.0	-0.0	-0.0	-0.0	-0.0	-0.0	213082.40625	16005.8759765625	-1008.6073608398438
0.1985	-0.0	-0.0	-0.0	-0.0	-0.0	-0.0	-4.141834259033203	2.2689123153686523	-749.4421997070312	-0.0	-0.0	-0.0	-0.0	-0.0	-0.0	212972.515625	16531.376953125	-1453.3013916015625
0.199	-0.0	-0.0	-0.0	-0.0	-0.0	-0.0	-5.336442947387695	1.8940616846084597	-746.4234008789062	-0.0	-0.0	-0.0	-0.0	-0.0	-0.0	212342.171875	17067.1875	-1705.52294921875
0.1995	-0.0	-0.0	-0.0	-0.0	-0.0	-0.0	-6.249774932861328	2.3777692317962646	-743.6828002929688	-0.0	-0.0	-0.0	-0.0	-0.0	-0.0	211489.25	17360.58984375	-2053.82373046875
0.2	-0.0	-0.0	-0.0	-0.0	-0.0	-0.0	-6.9241557121276855	2.784539222717285	-739.6728515625	-0.0	-0.0	-0.0	-0.0	-0.0	-0.0	210438.65625	17782.49609375	-2376.224609375
0.2005	-0.0	-0.0	-0.0	-0.0	-0.0	-0.0	-7.4517059326171875	2.621687173843384	-736.416015625	-0.0	-0.0	-0.0	-0.0	-0.0	-0.0	209896.3125	17808.390625	-2476.140869140625
0.201	-0.0	-0.0	-0.0	-0.0	-0.0	-0.0	-7.781916618347168	2.8494949340820312	-732.7456665039062	-0.0	-0.0	-0.0	-0.0	-0.0	-0.0	209198.375	17993.478515625	-2724.484375
0.2015	-0.0	-0.0	-0.0	-0.0	-0.0	-0.0	-7.689511775970459	3.237788438796997	-730.78173828125	-0.0	-0.0	-0.0	-0.0	-0.0	-0.0	208371.25	17882.31640625	-2798.433349609375
0.202	-0.0	-0.0	-0.0	-0.0	-0.0	-0.0	-7.0862321853637695	4.2383646965026855	-727.2237548828125	-0.0	-0.0	-0.0	-0.0	-0.0	-0.0	208057.75	17849.458984375	-2730.41064453125
0.2025	-0.0	-0.0	-0.0	-0.0	-0.0	-0.0	-6.2667999267578125	4.723645687103272	-723.149169921875	-0.0	-0.0	-0.0	-0.0	-0.0	-0.0	207480.9375	17667.970703125	-2509.34326171875
0.203	-0.0	-0.0	-0.0	-0.0	-0.0	-0.0	-5.516616821289063	5.287230491638184	-721.209716796875	-0.0	-0.0	-0.0	-0.0	-0.0	-0.0	207259.40625	17419.42578125	-2406.338134765625
0.20350000000000001	-0.0	-0.0	-0.0	-0.0	-0.0	-0.0	-5.322583198547363	5.638218879699707	-719.8283081054688	-0.0	-0.0	-0.0	-0.0	-0.0	-0.0	206899.796875	17034.416015625	-2491.708740234375
0.20400000000000001	-0.0	-0.0	-0.0	-0.0	-0.0	-0.0	-5.548993110656738	5.500724315643311	-718.9222412109375	-0.0	-0.0	-0.0	-0.0	-0.0	-0.0	207120.734375	16889.064453125	-2625.55908203125
0.20450000000000002	-0.0	-0.0	-0.0	-0.0	-0.0	-0.0	-5.529147148132324	6.447483062744141	-721.6392211914062	-0.0	-0.0	-0.0	-0.0	-0.0	-0.0	207582.609375	16475.712890625	-2751.326904296875
0.20500000000000002	-0.0	-0.0	-0.0	-0.0	-0.0	-0.0	-5.016438484191895	7.047389984130859	-723.2816162109375	-0.0	-0.0	-0.0	-0.0	-0.0	-0.0	208453.390625	16592.197265625	-2644.322509765625
0.20550000000000002	-0.0	-0.0	-0.0	-0.0	-0.0	-0.0	-4.324879169464111	7.683498859405518	-724.95751953125	-0.0	-0.0	-0.0	-0.0	-0.0	-0.0	209255.203125	16223.6181640625	-2636.318359375
0.20600000000000002	-0.0	-0.0	-0.0	-0.0	-0.0	-0.0	-4.143677711486816	8.784252166748047	-727.0650024414062	-0.0	-0.0	-0.0	-0.0	-0.0	-0.0	210106.234375	16248.75	-2520.98779296875
0.20650000000000002	-0.0	-0.0	-0.0	-0.0	-0.0	-0.0	-4.036430835723877	9.214836120605469	-729.7857055664062	-0.0	-0.0	-0.0	-0.0	-0.0	-0.0	210945.390625	16221.36328125	-2561.56591796875
0.20700000000000002	-0.0	-0.0	-0.0	-0.0	-0.0	-0.0	-4.084322929382324	10.145744323730469	-729.1155395507812	-0.0	-0.0	-0.0	-0.0	-0.0	-0.0	211226.078125	16218.5546875	-2646.602783203125
0.20750000000000002	-0.0	-0.0	-0.0	-0.0	-0.0	-0.0	-4.664927959442139	10.407310485839844	-728.3306274414062	-0.0	-0.0	-0.0	-0.0	-0.0	-0.0	211093.046875	16535.216796875	-2769.408447265625
0.20800000000000002	-0.0	-0.0	-0.0	-0.0	-0.0	-0.0	-4.81322717666626	10.60203742980957	-728.8519287109375	-0.0	-0.0	-0.0	-0.0	-0.0	-0.0	210947.9375	16643.4921875	-2954.9462890625
0.2085	-0.0	-0.0	-0.0	-0.0	-0.0	-0.0	-5.20391321182251	10.525226593017578	-726.2353515625	-0.0	-0.0	-0.0	-0.0	-0.0	-0.0	210958.8125	16911.640625	-2932.747802734375
0.209	-0.0	-0.0	-0.0	-0.0	-0.0	-0.0	-5.234278678894043	10.944724082946776	-726.951416015625	-0.0	-0.0	-0.0	-0.0	-0.0	-0.0	211147.109375	17143.052734375	-2916.809326171875
0.2095	-0.0	-0.0	-0.0	-0.0	-0.0	-0.0	-5.618014335632324	11.069360733032228	-727.345947265625	-0.0	-0.0	-0.0	-0.0	-0.0	-0.0	211308.3125	17436.48828125	-3004.4921875
0.21	-0.0	-0.0	-0.0	-0.0	-0.0	-0.0	-6.334063053131104	11.392304420471191	-728.1302490234375	-0.0	-0.0	-0.0	-0.0	-0.0	-0.0	211410.5625	17667.966796875	-3137.335205078125
0.2105	-0.0	-0.0	-0.0	-0.0	-0.0	-0.0	-6.7420196533203125	10.805567741394045	-729.0780029296875	-0.0	-0.0	-0.0	-0.0	-0.0	-0.0	211945.453125	17913.9296875	-3235.4306640625
0.211	-0.0	-0.0	-0.0	-0.0	-0.0	-0.0	-7.940375328063965	11.10191822052002	-730.9820556640625	-0.0	-0.0	-0.0	-0.0	-0.0	-0.0	212432.828125	18126.02734375	-3440.286376953125
0.2115	-0.0	-0.0	-0.0	-0.0	-0.0	-0.0	-8.981077194213867	11.20138454437256	-733.2550048828125	-0.0	-0.0	-0.0	-0.0	-0.0	-0.0	213604.03125	18027.80078125	-3598.564208984375
0.212	-0.0	-0.0	-0.0	-0.0	-0.0	-0.0	-9.402437210083008	11.125656127929688	-736.8274536132812	-0.0	-0.0	-0.0	-0.0	-0.0	-0.0	214367.734375	17979.490234375	-3593.153076171875
0.2125	-0.0	-0.0	-0.0	-0.0	-0.0	-0.0	-8.770977973937988	10.978625297546388	-740.4896850585938	-0.0	-0.0	-0.0	-0.0	-0.0	-0.0	215189.96875	17996.916015625	-3577.284912109375
0.213	-0.0	-0.0	-0.0	-0.0	-0.0	-0.0	-8.567831039428711	10.803424835205078	-741.8644409179688	-0.0	-0.0	-0.0	-0.0	-0.0	-0.0	215836.375	17441.955078125	-3343.501220703125
0.2135	-0.0	-0.0	-0.0	-0.0	-0.0	-0.0	-8.15357494354248	10.767461776733398	-743.662109375	-0.0	-0.0	-0.0	-0.0	-0.0	-0.0	216139.703125	17064.7265625	-3215.574951171875
0.214	-0.0	-0.0	-0.0	-0.0	-0.0	-0.0	-7.687853813171387	10.294742584228516	-745.274169921875	-0.0	-0.0	-0.0	-0.0	-0.0	-0.0	216213.578125	16803.505859375	-3057.4072265625
0.2145	-0.0	-0.0	-0.0	-0.0	-0.0	-0.0	-7.44148063659668	9.491857528686523	-743.9185180664062	-0.0	-0.0	-0.0	-0.0	-0.0	-0.0	215958.0	16780.76171875	-2939.621337890625
0.215	-0.0	-0.0	-0.0	-0.0	-0.0	-0.0	-7.407350540161133	9.299785614013672	-741.6813354492188	-0.0	-0.0	-0.0	-0.0	-0.0	-0.0	215416.9375	16689.767578125	-3015.26904296875
0.2155	-0.0	-0.0	-0.0	-0.0	-0.0	-0.0	-7.61328125	9.120767593383787	-740.8682861328125	-0.0	-0.0	-0.0	-0.0	-0.0	-0.0	215057.953125	16568.6640625	-3188.30029296875
0.216	-0.0	-0.0	-0.0	-0.0	-0.0	-0.0	-7.87380838394165	9.244497299194336	-739.952392578125	-0.0	-0.0	-0.0	-0.0	-0.0	-0.0	215023.5625	16531.572265625	-3342.029541015625
0.2165	-0.0	-0.0	-0.0	-0.0	-0.0	-0.0	-8.01799488067627	9.056401252746582	-740.7743530273438	-0.0	-0.0	-0.0	-0.0	-0.0	-0.0	215296.125	16467.052734375	-3360.766357421875
0.217	-0.0	-0.0	-0.0	-0.0	-0.0	-0.0	-8.246098518371582	8.579212188720703	-739.8660888671875	-0.0	-0.0	-0.0	-0.0	-0.0	-0.0	215013.921875	16709.275390625	-3539.782958984375
0.2175	-0.0	-0.0	-0.0	-0.0	-0.0	-0.0	-9.205681800842283	7.98080587387085	-739.8206787109375	-0.0	-0.0	-0.0	-0.0	-0.0	-0.0	214922.5	16831.625	-3784.0068359375
